<mxfile host="app.diagrams.net" modified="2023-03-24T03:01:15.847Z" agent="Mozilla/5.0 (Macintosh; Intel Mac OS X 10_15_7) AppleWebKit/537.36 (KHTML, like Gecko) Chrome/110.0.0.0 Safari/537.36" etag="V1R_m9BSsshm3y4THWXv" version="21.1.0" type="github">
  <diagram id="C5RBs43oDa-KdzZeNtuy" name="Page-1">
    <mxGraphModel dx="822" dy="461" grid="1" gridSize="10" guides="1" tooltips="1" connect="1" arrows="1" fold="1" page="1" pageScale="1" pageWidth="827" pageHeight="1169" math="0" shadow="0">
      <root>
        <mxCell id="WIyWlLk6GJQsqaUBKTNV-0" />
        <mxCell id="WIyWlLk6GJQsqaUBKTNV-1" parent="WIyWlLk6GJQsqaUBKTNV-0" />
        <mxCell id="WIyWlLk6GJQsqaUBKTNV-2" value="" style="rounded=0;html=1;jettySize=auto;orthogonalLoop=1;fontSize=11;endArrow=block;endFill=0;endSize=8;strokeWidth=1;shadow=0;labelBackgroundColor=none;edgeStyle=orthogonalEdgeStyle;" parent="WIyWlLk6GJQsqaUBKTNV-1" source="WIyWlLk6GJQsqaUBKTNV-3" target="WIyWlLk6GJQsqaUBKTNV-6" edge="1">
          <mxGeometry relative="1" as="geometry" />
        </mxCell>
        <mxCell id="vJKE3tAUrit-dRhqhG9x-0" value="" style="edgeStyle=orthogonalEdgeStyle;rounded=0;orthogonalLoop=1;jettySize=auto;html=1;" edge="1" parent="WIyWlLk6GJQsqaUBKTNV-1" source="WIyWlLk6GJQsqaUBKTNV-3" target="WIyWlLk6GJQsqaUBKTNV-6">
          <mxGeometry relative="1" as="geometry" />
        </mxCell>
        <mxCell id="WIyWlLk6GJQsqaUBKTNV-3" value="Trial Start" style="rounded=1;whiteSpace=wrap;html=1;fontSize=12;glass=0;strokeWidth=1;shadow=0;" parent="WIyWlLk6GJQsqaUBKTNV-1" vertex="1">
          <mxGeometry x="382" y="80" width="120" height="40" as="geometry" />
        </mxCell>
        <mxCell id="WIyWlLk6GJQsqaUBKTNV-6" value="Cards&lt;br&gt;Presentation" style="rhombus;whiteSpace=wrap;html=1;shadow=0;fontFamily=Helvetica;fontSize=12;align=center;strokeWidth=1;spacing=6;spacingTop=-4;" parent="WIyWlLk6GJQsqaUBKTNV-1" vertex="1">
          <mxGeometry x="392" y="170" width="100" height="80" as="geometry" />
        </mxCell>
        <mxCell id="vJKE3tAUrit-dRhqhG9x-2" value="Inter-trial Interval (var)" style="text;html=1;strokeColor=none;fillColor=none;align=center;verticalAlign=middle;whiteSpace=wrap;rounded=0;" vertex="1" parent="WIyWlLk6GJQsqaUBKTNV-1">
          <mxGeometry x="449" y="130" width="120" height="30" as="geometry" />
        </mxCell>
        <mxCell id="vJKE3tAUrit-dRhqhG9x-3" value="Hold period (var)" style="text;html=1;strokeColor=none;fillColor=none;align=center;verticalAlign=middle;whiteSpace=wrap;rounded=0;" vertex="1" parent="WIyWlLk6GJQsqaUBKTNV-1">
          <mxGeometry x="454" y="250" width="110" height="30" as="geometry" />
        </mxCell>
        <mxCell id="vJKE3tAUrit-dRhqhG9x-7" value="Go / &lt;br&gt;No Go" style="rounded=1;whiteSpace=wrap;html=1;" vertex="1" parent="WIyWlLk6GJQsqaUBKTNV-1">
          <mxGeometry x="402" y="290" width="80" height="30" as="geometry" />
        </mxCell>
        <mxCell id="vJKE3tAUrit-dRhqhG9x-8" value="" style="endArrow=classic;html=1;rounded=0;exitX=0.5;exitY=1;exitDx=0;exitDy=0;entryX=0.5;entryY=0;entryDx=0;entryDy=0;" edge="1" parent="WIyWlLk6GJQsqaUBKTNV-1" source="WIyWlLk6GJQsqaUBKTNV-6" target="vJKE3tAUrit-dRhqhG9x-7">
          <mxGeometry width="50" height="50" relative="1" as="geometry">
            <mxPoint x="552" y="260" as="sourcePoint" />
            <mxPoint x="602" y="210" as="targetPoint" />
          </mxGeometry>
        </mxCell>
        <mxCell id="vJKE3tAUrit-dRhqhG9x-9" value="" style="endArrow=classic;html=1;rounded=0;exitX=0;exitY=0.5;exitDx=0;exitDy=0;" edge="1" parent="WIyWlLk6GJQsqaUBKTNV-1" source="vJKE3tAUrit-dRhqhG9x-7">
          <mxGeometry width="50" height="50" relative="1" as="geometry">
            <mxPoint x="552" y="260" as="sourcePoint" />
            <mxPoint x="382" y="350" as="targetPoint" />
            <Array as="points">
              <mxPoint x="382" y="305" />
            </Array>
          </mxGeometry>
        </mxCell>
        <mxCell id="vJKE3tAUrit-dRhqhG9x-10" value="" style="endArrow=classic;html=1;rounded=0;exitX=1;exitY=0.5;exitDx=0;exitDy=0;" edge="1" parent="WIyWlLk6GJQsqaUBKTNV-1" source="vJKE3tAUrit-dRhqhG9x-7">
          <mxGeometry width="50" height="50" relative="1" as="geometry">
            <mxPoint x="412" y="315" as="sourcePoint" />
            <mxPoint x="502" y="350" as="targetPoint" />
            <Array as="points">
              <mxPoint x="502" y="305" />
            </Array>
          </mxGeometry>
        </mxCell>
        <mxCell id="vJKE3tAUrit-dRhqhG9x-11" value="Correct" style="rounded=1;whiteSpace=wrap;html=1;" vertex="1" parent="WIyWlLk6GJQsqaUBKTNV-1">
          <mxGeometry x="348" y="350" width="70" height="20" as="geometry" />
        </mxCell>
        <mxCell id="vJKE3tAUrit-dRhqhG9x-12" value="Incorrect" style="rounded=1;whiteSpace=wrap;html=1;" vertex="1" parent="WIyWlLk6GJQsqaUBKTNV-1">
          <mxGeometry x="467" y="350" width="70" height="20" as="geometry" />
        </mxCell>
        <mxCell id="vJKE3tAUrit-dRhqhG9x-13" value="" style="endArrow=classic;html=1;rounded=0;exitX=0.5;exitY=1;exitDx=0;exitDy=0;" edge="1" parent="WIyWlLk6GJQsqaUBKTNV-1" source="vJKE3tAUrit-dRhqhG9x-11">
          <mxGeometry width="50" height="50" relative="1" as="geometry">
            <mxPoint x="552" y="260" as="sourcePoint" />
            <mxPoint x="382" y="400" as="targetPoint" />
          </mxGeometry>
        </mxCell>
        <mxCell id="vJKE3tAUrit-dRhqhG9x-14" value="" style="endArrow=classic;html=1;rounded=0;exitX=0.5;exitY=1;exitDx=0;exitDy=0;" edge="1" parent="WIyWlLk6GJQsqaUBKTNV-1" source="vJKE3tAUrit-dRhqhG9x-12">
          <mxGeometry width="50" height="50" relative="1" as="geometry">
            <mxPoint x="393" y="380" as="sourcePoint" />
            <mxPoint x="502" y="400" as="targetPoint" />
          </mxGeometry>
        </mxCell>
        <mxCell id="vJKE3tAUrit-dRhqhG9x-15" value="Reward" style="rounded=1;whiteSpace=wrap;html=1;" vertex="1" parent="WIyWlLk6GJQsqaUBKTNV-1">
          <mxGeometry x="348" y="400" width="70" height="30" as="geometry" />
        </mxCell>
        <mxCell id="vJKE3tAUrit-dRhqhG9x-16" value="Time Out&lt;br&gt;(var)" style="rounded=1;whiteSpace=wrap;html=1;" vertex="1" parent="WIyWlLk6GJQsqaUBKTNV-1">
          <mxGeometry x="467" y="400" width="70" height="30" as="geometry" />
        </mxCell>
        <mxCell id="vJKE3tAUrit-dRhqhG9x-17" value="Time Out&lt;br&gt;(var)" style="rounded=1;whiteSpace=wrap;html=1;" vertex="1" parent="WIyWlLk6GJQsqaUBKTNV-1">
          <mxGeometry x="253" y="180" width="70" height="30" as="geometry" />
        </mxCell>
        <mxCell id="vJKE3tAUrit-dRhqhG9x-18" value="" style="endArrow=none;dashed=1;html=1;dashPattern=1 3;strokeWidth=2;rounded=0;" edge="1" parent="WIyWlLk6GJQsqaUBKTNV-1">
          <mxGeometry width="50" height="50" relative="1" as="geometry">
            <mxPoint x="342" y="140" as="sourcePoint" />
            <mxPoint x="442" y="140" as="targetPoint" />
          </mxGeometry>
        </mxCell>
        <mxCell id="vJKE3tAUrit-dRhqhG9x-19" value="Premature Response" style="rounded=1;whiteSpace=wrap;html=1;fontSize=12;glass=0;strokeWidth=1;shadow=0;" vertex="1" parent="WIyWlLk6GJQsqaUBKTNV-1">
          <mxGeometry x="228" y="125" width="120" height="30" as="geometry" />
        </mxCell>
        <mxCell id="vJKE3tAUrit-dRhqhG9x-20" value="" style="endArrow=classic;html=1;rounded=0;exitX=0.5;exitY=1;exitDx=0;exitDy=0;entryX=0.5;entryY=0;entryDx=0;entryDy=0;" edge="1" parent="WIyWlLk6GJQsqaUBKTNV-1" source="vJKE3tAUrit-dRhqhG9x-19" target="vJKE3tAUrit-dRhqhG9x-17">
          <mxGeometry width="50" height="50" relative="1" as="geometry">
            <mxPoint x="512" y="380" as="sourcePoint" />
            <mxPoint x="512" y="410" as="targetPoint" />
            <Array as="points" />
          </mxGeometry>
        </mxCell>
        <mxCell id="vJKE3tAUrit-dRhqhG9x-23" value="" style="endArrow=none;dashed=1;html=1;rounded=0;entryX=0;entryY=0.5;entryDx=0;entryDy=0;exitX=1;exitY=0.5;exitDx=0;exitDy=0;" edge="1" parent="WIyWlLk6GJQsqaUBKTNV-1" source="vJKE3tAUrit-dRhqhG9x-24" target="vJKE3tAUrit-dRhqhG9x-15">
          <mxGeometry width="50" height="50" relative="1" as="geometry">
            <mxPoint x="302" y="415" as="sourcePoint" />
            <mxPoint x="602" y="320" as="targetPoint" />
          </mxGeometry>
        </mxCell>
        <mxCell id="vJKE3tAUrit-dRhqhG9x-24" value="Licks as motivation?" style="shape=parallelogram;perimeter=parallelogramPerimeter;whiteSpace=wrap;html=1;fixedSize=1;" vertex="1" parent="WIyWlLk6GJQsqaUBKTNV-1">
          <mxGeometry x="160" y="400" width="150" height="30" as="geometry" />
        </mxCell>
      </root>
    </mxGraphModel>
  </diagram>
</mxfile>
